<?xml version="1.0" encoding="utf-8"?>
<!-- Generator: Adobe Illustrator 15.1.0, SVG Export Plug-In . SVG Version: 6.00 Build 0)  -->
<!DOCTYPE svg PUBLIC "-//W3C//DTD SVG 1.1//EN" "http://www.w3.org/Graphics/SVG/1.1/DTD/svg11.dtd">
<svg version="1.1" xmlns="http://www.w3.org/2000/svg" xmlns:xlink="http://www.w3.org/1999/xlink" x="0px" y="0px" width="256px"
	 height="256px" viewBox="0 0 256 256" enable-background="new 0 0 256 256" xml:space="preserve">
<g id="Layer_2">
</g>
<g id="Layer_1">
	<path d="M190.885,137.714c0,14.898,8.431,26.169,23.785,26.169c12.604,0,20.469-7.251,22.462-20.39h-10.805
		c-1.046,7.256-5.402,11.573-11.657,11.573c-9.382,0-12.985-8.922-12.985-17.353c0-15.394,7.865-18.432,13.461-18.432
		c5.968,0,10.329,3.336,11.182,9.511h10.805c-1.041-12.45-10.711-18.333-22.08-18.333
		C198.938,110.46,190.885,122.419,190.885,137.714z M163.551,110.455c-5.496,0-11.656,3.043-14.596,7.94h-0.188V92.518h-10.735
		h-0.069h-80.96l-37.836,69.848h81.029l37.767-69.719v69.874h10.234v-6.969h0.188c3.222,6.671,10.329,8.331,16.966,8.331
		c14.502,0,21.133-12.841,21.133-26.461C186.483,122.618,178.995,110.455,163.551,110.455z M128,1.12
		c70.071,0,126.88,56.809,126.88,126.88S198.071,254.88,128,254.88S1.12,198.071,1.12,128S57.929,1.12,128,1.12z"/>
	<path d="M162.129,155.066c-8.718,0-13.744-7.652-13.744-17.848c0-10.78,4.649-17.937,13.739-17.942
		c8.906,0.005,13.55,8.733,13.555,17.942C175.679,146.046,171.986,155.066,162.129,155.066z"/>
</g>
</svg>
