<?xml version="1.0" encoding="utf-8"?>
<!-- Generator: Adobe Illustrator 15.1.0, SVG Export Plug-In . SVG Version: 6.00 Build 0)  -->
<!DOCTYPE svg PUBLIC "-//W3C//DTD SVG 1.1//EN" "http://www.w3.org/Graphics/SVG/1.1/DTD/svg11.dtd">
<svg version="1.1" id="Layer_1" xmlns="http://www.w3.org/2000/svg" xmlns:xlink="http://www.w3.org/1999/xlink" x="0px" y="0px"
	 width="32.802px" height="32.802px" viewBox="0 0 32.802 32.802" enable-background="new 0 0 32.802 32.802" xml:space="preserve">
<path fill-rule="evenodd" clip-rule="evenodd" fill="#181616" d="M16.401,0.512c-8.995,0-16.289,7.293-16.289,16.29
	c0,7.199,4.667,13.305,11.141,15.459c0.814,0.15,1.112-0.354,1.112-0.785c0-0.387-0.014-1.41-0.022-2.77
	c-4.531,0.984-5.487-2.184-5.487-2.184C6.115,24.64,5.047,24.14,5.047,24.14c-1.479-1.012,0.112-0.99,0.112-0.99
	c1.635,0.115,2.495,1.678,2.495,1.678c1.453,2.49,3.813,1.771,4.741,1.354c0.148-1.053,0.569-1.77,1.034-2.178
	c-3.617-0.41-7.42-1.809-7.42-8.053c0-1.779,0.635-3.232,1.677-4.372c-0.167-0.412-0.727-2.068,0.16-4.311
	c0,0,1.368-0.438,4.479,1.67c1.299-0.361,2.693-0.542,4.078-0.548c1.383,0.006,2.777,0.187,4.078,0.548
	c3.109-2.108,4.475-1.67,4.475-1.67c0.889,2.243,0.33,3.899,0.162,4.311c1.043,1.139,1.674,2.592,1.674,4.372
	c0,6.26-3.809,7.637-7.436,8.041c0.584,0.502,1.104,1.496,1.104,3.016c0,2.178-0.02,3.936-0.02,4.469
	c0,0.436,0.293,0.943,1.121,0.783c6.467-2.158,11.129-8.26,11.129-15.457C32.689,7.805,25.396,0.512,16.401,0.512z"/>
</svg>
